<svg width="13" height="12" viewBox="0 0 13 12" fill="none" xmlns="http://www.w3.org/2000/svg">
<path fill-rule="evenodd" clip-rule="evenodd" d="M5.58624 6.58374L1.33927 1.275H4.6125L7.39674 4.75531L10.8426 1.275H11.8045L7.82648 5.29271L12.3125 10.9H9.03927L6.01616 7.12096L2.27442 10.9H1.3125L5.58624 6.58374ZM4.21079 1.9625H2.6875L9.41421 10.2125H10.9375L4.21079 1.9625Z" fill="#1D9BF0"/>
<path d="M1.33927 1.275V0.975002H0.715081L1.10501 1.46241L1.33927 1.275ZM5.58624 6.58374L5.79942 6.79482L5.9874 6.60496L5.8205 6.39633L5.58624 6.58374ZM4.6125 1.275L4.84676 1.08759L4.75669 0.975002H4.6125V1.275ZM7.39674 4.75531L7.16248 4.94272L7.37292 5.20577L7.60993 4.96639L7.39674 4.75531ZM10.8426 1.275V0.975002H10.7174L10.6294 1.06393L10.8426 1.275ZM11.8045 1.275L12.0177 1.48608L12.5237 0.975002H11.8045V1.275ZM7.82648 5.29271L7.6133 5.08163L7.42531 5.27149L7.59222 5.48012L7.82648 5.29271ZM12.3125 10.9V11.2H12.9367L12.5468 10.7126L12.3125 10.9ZM9.03927 10.9L8.805 11.0874L8.89508 11.2H9.03927V10.9ZM6.01616 7.12096L6.25042 6.93356L6.03999 6.67051L5.80298 6.90989L6.01616 7.12096ZM2.27442 10.9V11.2H2.39956L2.4876 11.1111L2.27442 10.9ZM1.3125 10.9L1.09932 10.6889L0.593276 11.2H1.3125V10.9ZM2.6875 1.9625V1.6625H2.05581L2.45499 2.15208L2.6875 1.9625ZM4.21079 1.9625L4.4433 1.77292L4.35326 1.6625H4.21079V1.9625ZM9.41421 10.2125L9.1817 10.4021L9.27174 10.5125H9.41421V10.2125ZM10.9375 10.2125V10.5125H11.5692L11.17 10.0229L10.9375 10.2125ZM1.10501 1.46241L5.35198 6.77115L5.8205 6.39633L1.57353 1.08759L1.10501 1.46241ZM4.6125 0.975002H1.33927V1.575H4.6125V0.975002ZM7.631 4.5679L4.84676 1.08759L4.37824 1.46241L7.16248 4.94272L7.631 4.5679ZM10.6294 1.06393L7.18356 4.54424L7.60993 4.96639L11.0558 1.48607L10.6294 1.06393ZM11.8045 0.975002H10.8426V1.575H11.8045V0.975002ZM8.03966 5.50379L12.0177 1.48608L11.5913 1.06393L7.6133 5.08163L8.03966 5.50379ZM12.5468 10.7126L8.06074 5.1053L7.59222 5.48012L12.0782 11.0874L12.5468 10.7126ZM9.03927 11.2H12.3125V10.6H9.03927V11.2ZM5.78189 7.30837L8.805 11.0874L9.27353 10.7126L6.25042 6.93356L5.78189 7.30837ZM2.4876 11.1111L6.22934 7.33204L5.80298 6.90989L2.06124 10.6889L2.4876 11.1111ZM1.3125 11.2H2.27442V10.6H1.3125V11.2ZM5.37306 6.37266L1.09932 10.6889L1.52568 11.1111L5.79942 6.79482L5.37306 6.37266ZM2.6875 2.2625H4.21079V1.6625H2.6875V2.2625ZM9.64672 10.0229L2.92001 1.77292L2.45499 2.15208L9.1817 10.4021L9.64672 10.0229ZM10.9375 9.9125H9.41421V10.5125H10.9375V9.9125ZM3.97828 2.15208L10.705 10.4021L11.17 10.0229L4.4433 1.77292L3.97828 2.15208Z" fill="#1D9BF0"/>
</svg>
