<svg width="16" height="15" viewBox="0 0 16 15" fill="none" xmlns="http://www.w3.org/2000/svg">
<path d="M1.5 15C1.08333 15 0.729167 14.8542 0.4375 14.5625C0.145833 14.2708 1.78814e-07 13.9167 1.78814e-07 13.5V4.5C1.78814e-07 4.08333 0.145833 3.72917 0.4375 3.4375C0.729167 3.14583 1.08333 3 1.5 3H4V1.5C4 1.08333 4.14583 0.729166 4.4375 0.437499C4.72917 0.145832 5.08333 -7.15256e-07 5.5 -7.15256e-07H10.5C10.9167 -7.15256e-07 11.2708 0.145832 11.5625 0.437499C11.8542 0.729166 12 1.08333 12 1.5V3H14.5C14.9167 3 15.2708 3.14583 15.5625 3.4375C15.8542 3.72917 16 4.08333 16 4.5V13.5C16 13.9167 15.8542 14.2708 15.5625 14.5625C15.2708 14.8542 14.9167 15 14.5 15H1.5ZM5.5 3H10.5V1.5H5.5V3ZM14.5 10.25H10.5V12H5.5V10.25H1.5V13.5H14.5V10.25ZM7 10.5H9V8.5H7V10.5ZM1.5 8.75H5.5V7H10.5V8.75H14.5V4.5H1.5V8.75Z" fill="#778CA2"/>
</svg>
