<svg width="196" height="56" viewBox="0 0 196 56" fill="none" xmlns="http://www.w3.org/2000/svg">
<path opacity="0.064382" fill-rule="evenodd" clip-rule="evenodd" d="M1 36.1283C1 36.1283 13.3446 50.5289 21.9583 47.7359C30.572 44.9428 36.9285 28.0085 45.3483 28.0085C53.7681 28.0085 61.2202 32.1736 71.7207 22.9252C82.2212 13.6769 83.9558 0.964926 96.5952 0.964926C109.235 0.964926 125.484 28.2607 142.441 7.3913C159.399 -13.4781 195 24.5773 195 24.5773V56H1L1 36.1283Z" fill="#6DD230"/>
<path d="M1 35.8612C1 35.8612 13.3446 50.1554 21.9583 47.383C30.572 44.6106 36.9285 27.8014 45.3483 27.8014C53.7681 27.8014 61.2202 31.9357 71.7207 22.7557C82.2212 13.5757 83.9558 0.957792 96.5952 0.957792C109.235 0.957792 125.484 28.0517 142.441 7.33666C159.399 -13.3784 195 24.3956 195 24.3956" stroke="#6DD230" stroke-width="1.3"/>
</svg>
