<svg width="12" height="13" viewBox="0 0 12 13" fill="none" xmlns="http://www.w3.org/2000/svg">
<path d="M1.6 12.9C1.26667 12.9 0.983334 12.7833 0.75 12.55C0.516667 12.3056 0.4 12.0222 0.4 11.7V2.9C0.4 2.57778 0.516667 2.3 0.75 2.06667C0.983334 1.82222 1.26667 1.7 1.6 1.7H2.8V0.0999994H4V1.7H8V0.0999994H9.2V1.7H10.4C10.7333 1.7 11.0167 1.82222 11.25 2.06667C11.4833 2.3 11.6 2.57778 11.6 2.9V11.7C11.6 12.0222 11.4833 12.3056 11.25 12.55C11.0167 12.7833 10.7333 12.9 10.4 12.9H1.6ZM1.6 11.7H10.4V5.7H1.6V11.7ZM1.6 4.5H10.4V2.9H1.6V4.5ZM1.6 4.5V2.9V4.5ZM6 8.1C5.83333 8.1 5.68889 8.04444 5.56667 7.93333C5.45556 7.81111 5.4 7.66667 5.4 7.5C5.4 7.33333 5.45556 7.19444 5.56667 7.08333C5.68889 6.96111 5.83333 6.9 6 6.9C6.16667 6.9 6.30556 6.96111 6.41667 7.08333C6.53889 7.19444 6.6 7.33333 6.6 7.5C6.6 7.66667 6.53889 7.81111 6.41667 7.93333C6.30556 8.04444 6.16667 8.1 6 8.1ZM3.4 8.1C3.23333 8.1 3.08889 8.04444 2.96667 7.93333C2.85556 7.81111 2.8 7.66667 2.8 7.5C2.8 7.33333 2.85556 7.19444 2.96667 7.08333C3.08889 6.96111 3.23333 6.9 3.4 6.9C3.56667 6.9 3.70556 6.96111 3.81667 7.08333C3.93889 7.19444 4 7.33333 4 7.5C4 7.66667 3.93889 7.81111 3.81667 7.93333C3.70556 8.04444 3.56667 8.1 3.4 8.1ZM8.6 8.1C8.43333 8.1 8.28889 8.04444 8.16667 7.93333C8.05556 7.81111 8 7.66667 8 7.5C8 7.33333 8.05556 7.19444 8.16667 7.08333C8.28889 6.96111 8.43333 6.9 8.6 6.9C8.76667 6.9 8.90556 6.96111 9.01667 7.08333C9.13889 7.19444 9.2 7.33333 9.2 7.5C9.2 7.66667 9.13889 7.81111 9.01667 7.93333C8.90556 8.04444 8.76667 8.1 8.6 8.1ZM6 10.5C5.83333 10.5 5.68889 10.4444 5.56667 10.3333C5.45556 10.2111 5.4 10.0667 5.4 9.9C5.4 9.73333 5.45556 9.59444 5.56667 9.48333C5.68889 9.36111 5.83333 9.3 6 9.3C6.16667 9.3 6.30556 9.36111 6.41667 9.48333C6.53889 9.59444 6.6 9.73333 6.6 9.9C6.6 10.0667 6.53889 10.2111 6.41667 10.3333C6.30556 10.4444 6.16667 10.5 6 10.5ZM3.4 10.5C3.23333 10.5 3.08889 10.4444 2.96667 10.3333C2.85556 10.2111 2.8 10.0667 2.8 9.9C2.8 9.73333 2.85556 9.59444 2.96667 9.48333C3.08889 9.36111 3.23333 9.3 3.4 9.3C3.56667 9.3 3.70556 9.36111 3.81667 9.48333C3.93889 9.59444 4 9.73333 4 9.9C4 10.0667 3.93889 10.2111 3.81667 10.3333C3.70556 10.4444 3.56667 10.5 3.4 10.5ZM8.6 10.5C8.43333 10.5 8.28889 10.4444 8.16667 10.3333C8.05556 10.2111 8 10.0667 8 9.9C8 9.73333 8.05556 9.59444 8.16667 9.48333C8.28889 9.36111 8.43333 9.3 8.6 9.3C8.76667 9.3 8.90556 9.36111 9.01667 9.48333C9.13889 9.59444 9.2 9.73333 9.2 9.9C9.2 10.0667 9.13889 10.2111 9.01667 10.3333C8.90556 10.4444 8.76667 10.5 8.6 10.5Z" fill="#252631"/>
</svg>
