<svg width="28" height="29" viewBox="0 0 28 29" fill="none" xmlns="http://www.w3.org/2000/svg">
<rect y="0.5" width="28" height="28" rx="14" fill="#F2F4F6"/>
<path d="M17.325 15.2V13.975H16.1V12.925H17.325V11.7H18.375V12.925H19.6V13.975H18.375V15.2H17.325ZM12.6 14.5C12.0167 14.5 11.5208 14.2958 11.1125 13.8875C10.7042 13.4792 10.5 12.9833 10.5 12.4C10.5 11.8167 10.7042 11.3208 11.1125 10.9125C11.5208 10.5042 12.0167 10.3 12.6 10.3C13.1833 10.3 13.6792 10.5042 14.0875 10.9125C14.4958 11.3208 14.7 11.8167 14.7 12.4C14.7 12.9833 14.4958 13.4792 14.0875 13.8875C13.6792 14.2958 13.1833 14.5 12.6 14.5ZM8.4 18.7V17.3583C8.4 17.1056 8.45833 16.8771 8.575 16.6729C8.70139 16.459 8.87153 16.2889 9.08542 16.1625C9.62014 15.8514 10.184 15.6132 10.7771 15.4479C11.3701 15.2826 11.9778 15.2 12.6 15.2C13.2222 15.2 13.8299 15.2826 14.4229 15.4479C15.016 15.6132 15.5799 15.8514 16.1146 16.1625C16.3285 16.2889 16.4938 16.459 16.6104 16.6729C16.7368 16.8771 16.8 17.1056 16.8 17.3583V18.7H8.4ZM9.45 17.65H15.75V17.3583C15.75 17.3 15.7354 17.2465 15.7063 17.1979C15.6771 17.1396 15.6382 17.0958 15.5896 17.0667C15.1326 16.8042 14.6514 16.6049 14.1458 16.4687C13.6403 16.3229 13.125 16.25 12.6 16.25C12.075 16.25 11.5597 16.3229 11.0542 16.4687C10.5486 16.6049 10.0674 16.8042 9.61042 17.0667C9.56181 17.0958 9.52292 17.1396 9.49375 17.1979C9.46458 17.2465 9.45 17.3 9.45 17.3583V17.65ZM12.6 13.45C12.8917 13.45 13.1396 13.3479 13.3438 13.1437C13.5479 12.9396 13.65 12.6917 13.65 12.4C13.65 12.1083 13.5479 11.8604 13.3438 11.6562C13.1396 11.4521 12.8917 11.35 12.6 11.35C12.3083 11.35 12.0604 11.4521 11.8563 11.6562C11.6521 11.8604 11.55 12.1083 11.55 12.4C11.55 12.6917 11.6521 12.9396 11.8563 13.1437C12.0604 13.3479 12.3083 13.45 12.6 13.45Z" fill="#778CA2"/>
</svg>
