<svg width="16" height="16" viewBox="0 0 16 16" fill="none" xmlns="http://www.w3.org/2000/svg">
<path d="M9 3C8.86111 3 8.74306 2.95139 8.64583 2.85417C8.54861 2.75694 8.5 2.63889 8.5 2.5C8.5 2.36111 8.54861 2.24305 8.64583 2.14583C8.74306 2.04861 8.86111 2 9 2C9.13889 2 9.25695 2.04861 9.35417 2.14583C9.45139 2.24305 9.5 2.36111 9.5 2.5C9.5 2.63889 9.45139 2.75694 9.35417 2.85417C9.25695 2.95139 9.13889 3 9 3ZM11 3C10.8611 3 10.7431 2.95139 10.6458 2.85417C10.5486 2.75694 10.5 2.63889 10.5 2.5C10.5 2.36111 10.5486 2.24305 10.6458 2.14583C10.7431 2.04861 10.8611 2 11 2C11.1389 2 11.2569 2.04861 11.3542 2.14583C11.4514 2.24305 11.5 2.36111 11.5 2.5C11.5 2.63889 11.4514 2.75694 11.3542 2.85417C11.2569 2.95139 11.1389 3 11 3ZM7 3C6.86111 3 6.74306 2.95139 6.64583 2.85417C6.54861 2.75694 6.5 2.63889 6.5 2.5C6.5 2.36111 6.54861 2.24305 6.64583 2.14583C6.74306 2.04861 6.86111 2 7 2C7.13889 2 7.25695 2.04861 7.35417 2.14583C7.45139 2.24305 7.5 2.36111 7.5 2.5C7.5 2.63889 7.45139 2.75694 7.35417 2.85417C7.25695 2.95139 7.13889 3 7 3ZM6 4C5.86111 4 5.74306 3.95139 5.64583 3.85417C5.54861 3.75694 5.5 3.63889 5.5 3.5C5.5 3.36111 5.54861 3.24305 5.64583 3.14583C5.74306 3.04861 5.86111 3 6 3C6.13889 3 6.25695 3.04861 6.35417 3.14583C6.45139 3.24305 6.5 3.36111 6.5 3.5C6.5 3.63889 6.45139 3.75694 6.35417 3.85417C6.25695 3.95139 6.13889 4 6 4ZM4 4C3.86111 4 3.74306 3.95139 3.64583 3.85417C3.54861 3.75694 3.5 3.63889 3.5 3.5C3.5 3.36111 3.54861 3.24305 3.64583 3.14583C3.74306 3.04861 3.86111 3 4 3C4.13889 3 4.25694 3.04861 4.35417 3.14583C4.45139 3.24305 4.5 3.36111 4.5 3.5C4.5 3.63889 4.45139 3.75694 4.35417 3.85417C4.25694 3.95139 4.13889 4 4 4ZM8 4C7.86111 4 7.74306 3.95139 7.64583 3.85417C7.54861 3.75694 7.5 3.63889 7.5 3.5C7.5 3.36111 7.54861 3.24305 7.64583 3.14583C7.74306 3.04861 7.86111 3 8 3C8.13889 3 8.25694 3.04861 8.35417 3.14583C8.45139 3.24305 8.5 3.36111 8.5 3.5C8.5 3.63889 8.45139 3.75694 8.35417 3.85417C8.25694 3.95139 8.13889 4 8 4ZM10 4C9.86111 4 9.74306 3.95139 9.64583 3.85417C9.54861 3.75694 9.5 3.63889 9.5 3.5C9.5 3.36111 9.54861 3.24305 9.64583 3.14583C9.74306 3.04861 9.86111 3 10 3C10.1389 3 10.2569 3.04861 10.3542 3.14583C10.4514 3.24305 10.5 3.36111 10.5 3.5C10.5 3.63889 10.4514 3.75694 10.3542 3.85417C10.2569 3.95139 10.1389 4 10 4ZM12 4C11.8611 4 11.7431 3.95139 11.6458 3.85417C11.5486 3.75694 11.5 3.63889 11.5 3.5C11.5 3.36111 11.5486 3.24305 11.6458 3.14583C11.7431 3.04861 11.8611 3 12 3C12.1389 3 12.2569 3.04861 12.3542 3.14583C12.4514 3.24305 12.5 3.36111 12.5 3.5C12.5 3.63889 12.4514 3.75694 12.3542 3.85417C12.2569 3.95139 12.1389 4 12 4ZM9 5C8.86111 5 8.74306 4.95139 8.64583 4.85417C8.54861 4.75694 8.5 4.63889 8.5 4.5C8.5 4.36111 8.54861 4.24305 8.64583 4.14583C8.74306 4.04861 8.86111 4 9 4C9.13889 4 9.25695 4.04861 9.35417 4.14583C9.45139 4.24305 9.5 4.36111 9.5 4.5C9.5 4.63889 9.45139 4.75694 9.35417 4.85417C9.25695 4.95139 9.13889 5 9 5ZM11 5C10.8611 5 10.7431 4.95139 10.6458 4.85417C10.5486 4.75694 10.5 4.63889 10.5 4.5C10.5 4.36111 10.5486 4.24305 10.6458 4.14583C10.7431 4.04861 10.8611 4 11 4C11.1389 4 11.2569 4.04861 11.3542 4.14583C11.4514 4.24305 11.5 4.36111 11.5 4.5C11.5 4.63889 11.4514 4.75694 11.3542 4.85417C11.2569 4.95139 11.1389 5 11 5ZM13 5C12.8611 5 12.7431 4.95139 12.6458 4.85417C12.5486 4.75694 12.5 4.63889 12.5 4.5C12.5 4.36111 12.5486 4.24305 12.6458 4.14583C12.7431 4.04861 12.8611 4 13 4C13.1389 4 13.2569 4.04861 13.3542 4.14583C13.4514 4.24305 13.5 4.36111 13.5 4.5C13.5 4.63889 13.4514 4.75694 13.3542 4.85417C13.2569 4.95139 13.1389 5 13 5ZM7 5C6.86111 5 6.74306 4.95139 6.64583 4.85417C6.54861 4.75694 6.5 4.63889 6.5 4.5C6.5 4.36111 6.54861 4.24305 6.64583 4.14583C6.74306 4.04861 6.86111 4 7 4C7.13889 4 7.25695 4.04861 7.35417 4.14583C7.45139 4.24305 7.5 4.36111 7.5 4.5C7.5 4.63889 7.45139 4.75694 7.35417 4.85417C7.25695 4.95139 7.13889 5 7 5ZM5 5C4.86111 5 4.74306 4.95139 4.64583 4.85417C4.54861 4.75694 4.5 4.63889 4.5 4.5C4.5 4.36111 4.54861 4.24305 4.64583 4.14583C4.74306 4.04861 4.86111 4 5 4C5.13889 4 5.25694 4.04861 5.35417 4.14583C5.45139 4.24305 5.5 4.36111 5.5 4.5C5.5 4.63889 5.45139 4.75694 5.35417 4.85417C5.25694 4.95139 5.13889 5 5 5ZM6 6C5.86111 6 5.74306 5.95139 5.64583 5.85417C5.54861 5.75694 5.5 5.63889 5.5 5.5C5.5 5.36111 5.54861 5.24306 5.64583 5.14583C5.74306 5.04861 5.86111 5 6 5C6.13889 5 6.25695 5.04861 6.35417 5.14583C6.45139 5.24306 6.5 5.36111 6.5 5.5C6.5 5.63889 6.45139 5.75694 6.35417 5.85417C6.25695 5.95139 6.13889 6 6 6ZM4 6C3.86111 6 3.74306 5.95139 3.64583 5.85417C3.54861 5.75694 3.5 5.63889 3.5 5.5C3.5 5.36111 3.54861 5.24306 3.64583 5.14583C3.74306 5.04861 3.86111 5 4 5C4.13889 5 4.25694 5.04861 4.35417 5.14583C4.45139 5.24306 4.5 5.36111 4.5 5.5C4.5 5.63889 4.45139 5.75694 4.35417 5.85417C4.25694 5.95139 4.13889 6 4 6ZM8 6C7.86111 6 7.74306 5.95139 7.64583 5.85417C7.54861 5.75694 7.5 5.63889 7.5 5.5C7.5 5.36111 7.54861 5.24306 7.64583 5.14583C7.74306 5.04861 7.86111 5 8 5C8.13889 5 8.25694 5.04861 8.35417 5.14583C8.45139 5.24306 8.5 5.36111 8.5 5.5C8.5 5.63889 8.45139 5.75694 8.35417 5.85417C8.25694 5.95139 8.13889 6 8 6ZM10 6C9.86111 6 9.74306 5.95139 9.64583 5.85417C9.54861 5.75694 9.5 5.63889 9.5 5.5C9.5 5.36111 9.54861 5.24306 9.64583 5.14583C9.74306 5.04861 9.86111 5 10 5C10.1389 5 10.2569 5.04861 10.3542 5.14583C10.4514 5.24306 10.5 5.36111 10.5 5.5C10.5 5.63889 10.4514 5.75694 10.3542 5.85417C10.2569 5.95139 10.1389 6 10 6ZM12 6C11.8611 6 11.7431 5.95139 11.6458 5.85417C11.5486 5.75694 11.5 5.63889 11.5 5.5C11.5 5.36111 11.5486 5.24306 11.6458 5.14583C11.7431 5.04861 11.8611 5 12 5C12.1389 5 12.2569 5.04861 12.3542 5.14583C12.4514 5.24306 12.5 5.36111 12.5 5.5C12.5 5.63889 12.4514 5.75694 12.3542 5.85417C12.2569 5.95139 12.1389 6 12 6ZM14 6C13.8611 6 13.7431 5.95139 13.6458 5.85417C13.5486 5.75694 13.5 5.63889 13.5 5.5C13.5 5.36111 13.5486 5.24306 13.6458 5.14583C13.7431 5.04861 13.8611 5 14 5C14.1389 5 14.2569 5.04861 14.3542 5.14583C14.4514 5.24306 14.5 5.36111 14.5 5.5C14.5 5.63889 14.4514 5.75694 14.3542 5.85417C14.2569 5.95139 14.1389 6 14 6ZM2 6C1.86111 6 1.74306 5.95139 1.64583 5.85417C1.54861 5.75694 1.5 5.63889 1.5 5.5C1.5 5.36111 1.54861 5.24306 1.64583 5.14583C1.74306 5.04861 1.86111 5 2 5C2.13889 5 2.25694 5.04861 2.35417 5.14583C2.45139 5.24306 2.5 5.36111 2.5 5.5C2.5 5.63889 2.45139 5.75694 2.35417 5.85417C2.25694 5.95139 2.13889 6 2 6ZM3 5C2.86111 5 2.74306 4.95833 2.64583 4.875C2.54861 4.79167 2.5 4.68055 2.5 4.54167C2.5 4.38889 2.54167 4.26389 2.625 4.16667C2.72222 4.05555 2.84722 4 3 4C3.13889 4 3.25694 4.04861 3.35417 4.14583C3.45139 4.24305 3.5 4.36111 3.5 4.5C3.5 4.63889 3.45139 4.75694 3.35417 4.85417C3.25694 4.95139 3.13889 5 3 5ZM5 3C4.86111 3 4.74306 2.95833 4.64583 2.875C4.54861 2.77778 4.5 2.65278 4.5 2.5C4.5 2.36111 4.54861 2.24305 4.64583 2.14583C4.74306 2.04861 4.86111 2 5 2C5.13889 2 5.25694 2.04861 5.35417 2.14583C5.45139 2.24305 5.5 2.36111 5.5 2.5C5.5 2.63889 5.45139 2.75694 5.35417 2.85417C5.25694 2.95139 5.13889 3 5 3ZM6 2C5.86111 2 5.74306 1.95139 5.64583 1.85417C5.54861 1.75694 5.5 1.63889 5.5 1.5C5.5 1.36111 5.54861 1.24305 5.64583 1.14583C5.74306 1.04861 5.86111 1 6 1C6.13889 1 6.25695 1.04861 6.35417 1.14583C6.45139 1.24305 6.5 1.36111 6.5 1.5C6.5 1.63889 6.45139 1.75694 6.35417 1.85417C6.25695 1.95139 6.13889 2 6 2ZM8 2C7.86111 2 7.74306 1.95139 7.64583 1.85417C7.54861 1.75694 7.5 1.63889 7.5 1.5C7.5 1.36111 7.54861 1.24305 7.64583 1.14583C7.74306 1.04861 7.86111 1 8 1C8.13889 1 8.25694 1.04861 8.35417 1.14583C8.45139 1.24305 8.5 1.36111 8.5 1.5C8.5 1.63889 8.45139 1.75694 8.35417 1.85417C8.25694 1.95139 8.13889 2 8 2ZM9.97917 2C9.84028 2 9.72222 1.95833 9.625 1.875C9.52778 1.77778 9.47917 1.65278 9.47917 1.5C9.47917 1.36111 9.52778 1.24305 9.625 1.14583C9.72222 1.04861 9.84028 1 9.97917 1C10.1181 1 10.2361 1.04861 10.3333 1.14583C10.4306 1.24305 10.4792 1.36111 10.4792 1.5C10.4792 1.65278 10.4306 1.77778 10.3333 1.875C10.2361 1.95833 10.1181 2 9.97917 2ZM5.5 9.5C5.22222 9.5 4.98611 9.40278 4.79167 9.20833C4.59722 9.01389 4.5 8.77778 4.5 8.5C4.5 8.22222 4.59722 7.98611 4.79167 7.79167C4.98611 7.59722 5.22222 7.5 5.5 7.5C5.77778 7.5 6.01389 7.59722 6.20833 7.79167C6.40278 7.98611 6.5 8.22222 6.5 8.5C6.5 8.77778 6.40278 9.01389 6.20833 9.20833C6.01389 9.40278 5.77778 9.5 5.5 9.5ZM10.5 9.5C10.2222 9.5 9.98611 9.40278 9.79167 9.20833C9.59722 9.01389 9.5 8.77778 9.5 8.5C9.5 8.22222 9.59722 7.98611 9.79167 7.79167C9.98611 7.59722 10.2222 7.5 10.5 7.5C10.7778 7.5 11.0139 7.59722 11.2083 7.79167C11.4028 7.98611 11.5 8.22222 11.5 8.5C11.5 8.77778 11.4028 9.01389 11.2083 9.20833C11.0139 9.40278 10.7778 9.5 10.5 9.5ZM8 16C6.90278 16 5.86806 15.7917 4.89583 15.375C3.92361 14.9583 3.06944 14.3889 2.33333 13.6667C1.61111 12.9306 1.04167 12.0764 0.625 11.1042C0.208334 10.1319 1.78814e-07 9.09722 1.78814e-07 8C1.78814e-07 6.88889 0.208334 5.85417 0.625 4.89583C1.04167 3.92361 1.61111 3.07639 2.33333 2.35417C3.06944 1.61805 3.92361 1.04167 4.89583 0.624999C5.86806 0.208333 6.90278 -7.15256e-07 8 -7.15256e-07C9.11111 -7.15256e-07 10.1458 0.208333 11.1042 0.624999C12.0764 1.04167 12.9236 1.61805 13.6458 2.35417C14.3819 3.07639 14.9583 3.92361 15.375 4.89583C15.7917 5.85417 16 6.88889 16 8C16 9.09722 15.7917 10.1319 15.375 11.1042C14.9583 12.0764 14.3819 12.9306 13.6458 13.6667C12.9236 14.3889 12.0764 14.9583 11.1042 15.375C10.1458 15.7917 9.11111 16 8 16ZM8 14.5C9.80556 14.5 11.3403 13.8681 12.6042 12.6042C13.8681 11.3403 14.5 9.80556 14.5 8C14.5 6.19444 13.8681 4.65972 12.6042 3.39583C11.3403 2.13194 9.80556 1.5 8 1.5C6.19444 1.5 4.65972 2.13194 3.39583 3.39583C2.13194 4.65972 1.5 6.19444 1.5 8C1.5 9.80556 2.13194 11.3403 3.39583 12.6042C4.65972 13.8681 6.19444 14.5 8 14.5Z" fill="#778CA2"/>
</svg>
