<svg width="12" height="16" viewBox="0 0 12 16" fill="none" xmlns="http://www.w3.org/2000/svg">
<path d="M3.57628e-07 13.5V12H1V7C1 5.79167 1.36806 4.72917 2.10417 3.8125C2.85417 2.89583 3.81944 2.32639 5 2.10417V1C5 0.722221 5.09722 0.48611 5.29167 0.291666C5.48611 0.0972216 5.72222 -7.15256e-07 6 -7.15256e-07C6.27778 -7.15256e-07 6.51389 0.0972216 6.70833 0.291666C6.90278 0.48611 7 0.722221 7 1V2.10417C8.18056 2.32639 9.13889 2.89583 9.875 3.8125C10.625 4.72917 11 5.79167 11 7V12H12V13.5H3.57628e-07ZM6 16C5.58333 16 5.22917 15.8542 4.9375 15.5625C4.64583 15.2708 4.5 14.9167 4.5 14.5H7.5C7.5 14.9167 7.35417 15.2708 7.0625 15.5625C6.77083 15.8542 6.41667 16 6 16ZM2.5 12H9.5V7C9.5 6.02778 9.15972 5.20139 8.47917 4.52083C7.79861 3.84028 6.97222 3.5 6 3.5C5.02778 3.5 4.20139 3.84028 3.52083 4.52083C2.84028 5.20139 2.5 6.02778 2.5 7V12Z" fill="#778CA2"/>
</svg>
