<svg width="14" height="14" viewBox="0 0 14 14" fill="none" xmlns="http://www.w3.org/2000/svg">
<mask id="mask0_40_143618" style="mask-type:luminance" maskUnits="userSpaceOnUse" x="0" y="0" width="14" height="14">
<path fill-rule="evenodd" clip-rule="evenodd" d="M12.9826 5.88636H7.14244V8.25284H10.5041C10.1907 9.75625 8.88023 10.6193 7.14244 10.6193C5.09128 10.6193 3.43895 9.00455 3.43895 7C3.43895 4.99545 5.09128 3.38068 7.14244 3.38068C8.02558 3.38068 8.82326 3.68693 9.45 4.18807L11.2733 2.40625C10.1622 1.45966 8.73779 0.875 7.14244 0.875C3.66686 0.875 0.875 3.60341 0.875 7C0.875 10.3966 3.66686 13.125 7.14244 13.125C10.2762 13.125 13.125 10.8977 13.125 7C13.125 6.63807 13.068 6.2483 12.9826 5.88636Z" fill="white"/>
</mask>
<g mask="url(#mask0_40_143618)">
<path d="M0.305237 10.6193V3.38068L5.14826 7L0.305237 10.6193Z" fill="#FBBC05"/>
</g>
<mask id="mask1_40_143618" style="mask-type:luminance" maskUnits="userSpaceOnUse" x="0" y="0" width="14" height="14">
<path fill-rule="evenodd" clip-rule="evenodd" d="M12.9826 5.88636H7.14244V8.25284H10.5041C10.1907 9.75625 8.88023 10.6193 7.14244 10.6193C5.09128 10.6193 3.43895 9.00455 3.43895 7C3.43895 4.99545 5.09128 3.38068 7.14244 3.38068C8.02558 3.38068 8.82326 3.68693 9.45 4.18807L11.2733 2.40625C10.1622 1.45966 8.73779 0.875 7.14244 0.875C3.66686 0.875 0.875 3.60341 0.875 7C0.875 10.3966 3.66686 13.125 7.14244 13.125C10.2762 13.125 13.125 10.8977 13.125 7C13.125 6.63807 13.068 6.2483 12.9826 5.88636Z" fill="white"/>
</mask>
<g mask="url(#mask1_40_143618)">
<path d="M0.305237 3.38068L5.14826 7L7.14245 5.30171L13.9797 4.21591V0.318184H0.305237V3.38068Z" fill="#EA4335"/>
</g>
<mask id="mask2_40_143618" style="mask-type:luminance" maskUnits="userSpaceOnUse" x="0" y="0" width="14" height="14">
<path fill-rule="evenodd" clip-rule="evenodd" d="M12.9826 5.88636H7.14244V8.25284H10.5041C10.1907 9.75625 8.88023 10.6193 7.14244 10.6193C5.09128 10.6193 3.43895 9.00455 3.43895 7C3.43895 4.99545 5.09128 3.38068 7.14244 3.38068C8.02558 3.38068 8.82326 3.68693 9.45 4.18807L11.2733 2.40625C10.1622 1.45966 8.73779 0.875 7.14244 0.875C3.66686 0.875 0.875 3.60341 0.875 7C0.875 10.3966 3.66686 13.125 7.14244 13.125C10.2762 13.125 13.125 10.8977 13.125 7C13.125 6.63807 13.068 6.2483 12.9826 5.88636Z" fill="white"/>
</mask>
<g mask="url(#mask2_40_143618)">
<path d="M0.305237 10.6193L8.85175 4.21591L11.1023 4.49432L13.9797 0.318184V13.6818H0.305237V10.6193Z" fill="#34A853"/>
</g>
<mask id="mask3_40_143618" style="mask-type:luminance" maskUnits="userSpaceOnUse" x="0" y="0" width="14" height="14">
<path fill-rule="evenodd" clip-rule="evenodd" d="M12.9826 5.88636H7.14244V8.25284H10.5041C10.1907 9.75625 8.88023 10.6193 7.14244 10.6193C5.09128 10.6193 3.43895 9.00455 3.43895 7C3.43895 4.99545 5.09128 3.38068 7.14244 3.38068C8.02558 3.38068 8.82326 3.68693 9.45 4.18807L11.2733 2.40625C10.1622 1.45966 8.73779 0.875 7.14244 0.875C3.66686 0.875 0.875 3.60341 0.875 7C0.875 10.3966 3.66686 13.125 7.14244 13.125C10.2762 13.125 13.125 10.8977 13.125 7C13.125 6.63807 13.068 6.2483 12.9826 5.88636Z" fill="white"/>
</mask>
<g mask="url(#mask3_40_143618)">
<path d="M13.9797 13.6818L5.14826 7L4.00873 6.16477L13.9797 3.38068V13.6818Z" fill="#4285F4"/>
</g>
</svg>
