<svg width="18" height="18" viewBox="0 0 18 18" fill="none" xmlns="http://www.w3.org/2000/svg">
<path d="M9.28125 1.125C13.7897 1.125 17.4375 4.7743 17.4375 9.27783C17.4375 13.7814 13.7897 17.4375 9.28125 17.4375C4.77277 17.4375 1.125 13.7882 1.125 9.28467C1.125 4.78113 4.77277 1.125 9.28125 1.125Z" fill="#E74D89"/>
<path fill-rule="evenodd" clip-rule="evenodd" d="M9 18C4.03594 18 0 13.9664 0 9.00352C0 4.03363 4.03594 0 9 0C13.9641 0 18 4.03363 18 8.99648C18 13.9593 13.9641 18 9 18ZM16.5867 10.2284C16.3266 10.1439 14.2102 9.5174 11.7984 9.89754C12.8039 12.657 13.2117 14.9097 13.2891 15.3743C15.0188 14.2127 16.2492 12.3684 16.5867 10.2284ZM10.3641 10.2566C11.4398 13.0583 11.8898 15.4095 12.0023 16.0853C11.0813 16.4795 10.0617 16.6977 9 16.6907C7.22109 16.6907 5.58281 16.0853 4.28203 15.0716C4.42266 14.79 5.97656 11.7841 10.3148 10.2706C10.3289 10.2706 10.35 10.2636 10.3641 10.2566ZM3.29063 14.1494C3.46641 13.8537 5.57578 10.3621 9.54141 9.07392C9.62209 9.04507 9.70749 9.02095 9.78987 8.99768L9.84375 8.9824C9.65391 8.54595 9.44297 8.1095 9.21797 7.68009C5.37891 8.82753 1.65234 8.77826 1.31484 8.77122C1.31484 8.80993 1.31309 8.84865 1.31133 8.88737C1.30957 8.92609 1.30781 8.9648 1.30781 9.00352C1.31484 10.9816 2.06016 12.7837 3.29063 14.1494ZM8.58516 6.49746C4.98516 7.45483 1.82109 7.44075 1.47656 7.43371C1.97578 5.05436 3.57891 3.06922 5.7375 2.05553L5.76097 2.08821C6.02576 2.45668 7.35475 4.30599 8.58516 6.49746ZM7.2 1.53461C7.41094 1.81619 8.81016 3.71686 10.0688 6.03285C12.8039 5.00508 13.957 3.45639 14.0977 3.25929C12.7406 2.05553 10.9547 1.32343 9 1.32343C8.38125 1.32343 7.77656 1.40086 7.2 1.53461ZM10.6594 7.18029C13.5 6.01877 14.7867 4.36449 14.9484 4.14627C16.0242 5.45561 16.6711 7.12397 16.6922 8.93312C16.6858 8.93189 16.6781 8.93036 16.6689 8.92855C16.3117 8.85824 13.8366 8.37105 11.3414 8.68674C11.2852 8.56005 11.2289 8.42633 11.1727 8.2926L11.1727 8.29253C11.0109 7.91944 10.8352 7.54634 10.6594 7.18029Z" fill="#B2215A"/>
</svg>
