<svg width="18" height="18" viewBox="0 0 18 18" fill="none" xmlns="http://www.w3.org/2000/svg">
<path d="M6.375 18C8.031 18 9.375 16.656 9.375 15V12H6.375C4.719 12 3.375 13.344 3.375 15C3.375 16.656 4.719 18 6.375 18Z" fill="#0ACF83"/>
<path d="M3.375 9C3.375 7.344 4.719 6 6.375 6H9.375V12H6.375C4.719 12 3.375 10.656 3.375 9Z" fill="#A259FF"/>
<path d="M3.375 3C3.375 1.344 4.719 0 6.375 0H9.375V6H6.375C4.719 6 3.375 4.656 3.375 3Z" fill="#F24E1E"/>
<path d="M9.375 0H12.375C14.031 0 15.375 1.344 15.375 3C15.375 4.656 14.031 6 12.375 6H9.375V0Z" fill="#FF7262"/>
<path d="M15.375 9C15.375 10.656 14.031 12 12.375 12C10.719 12 9.375 10.656 9.375 9C9.375 7.344 10.719 6 12.375 6C14.031 6 15.375 7.344 15.375 9Z" fill="#1ABCFE"/>
</svg>
