<svg width="18" height="18" viewBox="0 0 18 18" fill="none" xmlns="http://www.w3.org/2000/svg">
<mask id="mask0_75_4876" style="mask-type:luminance" maskUnits="userSpaceOnUse" x="1" y="1" width="16" height="16">
<path fill-rule="evenodd" clip-rule="evenodd" d="M16.6919 7.56818H9.18314V10.6108H13.5052C13.1023 12.5437 11.4174 13.6534 9.18314 13.6534C6.54593 13.6534 4.42151 11.5773 4.42151 9C4.42151 6.42273 6.54593 4.34659 9.18314 4.34659C10.3186 4.34659 11.3442 4.74034 12.15 5.38466L14.4942 3.09375C13.0657 1.8767 11.2343 1.125 9.18314 1.125C4.71453 1.125 1.125 4.63295 1.125 9C1.125 13.367 4.71453 16.875 9.18314 16.875C13.2122 16.875 16.875 14.0114 16.875 9C16.875 8.53466 16.8017 8.03352 16.6919 7.56818Z" fill="white"/>
</mask>
<g mask="url(#mask0_75_4876)">
<path d="M0.392456 13.6534V4.34662L6.6192 9.00003L0.392456 13.6534Z" fill="#FBBC05"/>
</g>
<mask id="mask1_75_4876" style="mask-type:luminance" maskUnits="userSpaceOnUse" x="1" y="1" width="16" height="16">
<path fill-rule="evenodd" clip-rule="evenodd" d="M16.6919 7.56818H9.18314V10.6108H13.5052C13.1023 12.5437 11.4174 13.6534 9.18314 13.6534C6.54593 13.6534 4.42151 11.5773 4.42151 9C4.42151 6.42273 6.54593 4.34659 9.18314 4.34659C10.3186 4.34659 11.3442 4.74034 12.15 5.38466L14.4942 3.09375C13.0657 1.8767 11.2343 1.125 9.18314 1.125C4.71453 1.125 1.125 4.63295 1.125 9C1.125 13.367 4.71453 16.875 9.18314 16.875C13.2122 16.875 16.875 14.0114 16.875 9C16.875 8.53466 16.8017 8.03352 16.6919 7.56818Z" fill="white"/>
</mask>
<g mask="url(#mask1_75_4876)">
<path d="M0.392456 4.34662L6.6192 9.00003L9.18315 6.8165L17.9739 5.42048V0.409119H0.392456V4.34662Z" fill="#EA4335"/>
</g>
<mask id="mask2_75_4876" style="mask-type:luminance" maskUnits="userSpaceOnUse" x="1" y="1" width="16" height="16">
<path fill-rule="evenodd" clip-rule="evenodd" d="M16.6919 7.56818H9.18314V10.6108H13.5052C13.1023 12.5437 11.4174 13.6534 9.18314 13.6534C6.54593 13.6534 4.42151 11.5773 4.42151 9C4.42151 6.42273 6.54593 4.34659 9.18314 4.34659C10.3186 4.34659 11.3442 4.74034 12.15 5.38466L14.4942 3.09375C13.0657 1.8767 11.2343 1.125 9.18314 1.125C4.71453 1.125 1.125 4.63295 1.125 9C1.125 13.367 4.71453 16.875 9.18314 16.875C13.2122 16.875 16.875 14.0114 16.875 9C16.875 8.53466 16.8017 8.03352 16.6919 7.56818Z" fill="white"/>
</mask>
<g mask="url(#mask2_75_4876)">
<path d="M0.392456 13.6534L11.3808 5.42048L14.2744 5.77844L17.9739 0.409119V17.5909H0.392456V13.6534Z" fill="#34A853"/>
</g>
<mask id="mask3_75_4876" style="mask-type:luminance" maskUnits="userSpaceOnUse" x="1" y="1" width="16" height="16">
<path fill-rule="evenodd" clip-rule="evenodd" d="M16.6919 7.56818H9.18314V10.6108H13.5052C13.1023 12.5437 11.4174 13.6534 9.18314 13.6534C6.54593 13.6534 4.42151 11.5773 4.42151 9C4.42151 6.42273 6.54593 4.34659 9.18314 4.34659C10.3186 4.34659 11.3442 4.74034 12.15 5.38466L14.4942 3.09375C13.0657 1.8767 11.2343 1.125 9.18314 1.125C4.71453 1.125 1.125 4.63295 1.125 9C1.125 13.367 4.71453 16.875 9.18314 16.875C13.2122 16.875 16.875 14.0114 16.875 9C16.875 8.53466 16.8017 8.03352 16.6919 7.56818Z" fill="white"/>
</mask>
<g mask="url(#mask3_75_4876)">
<path d="M17.9739 17.5909L6.6192 9.00003L5.15408 7.92616L17.9739 4.34662V17.5909Z" fill="#4285F4"/>
</g>
</svg>
